<?xml version="1.0" standalone="no"?><!DOCTYPE svg PUBLIC "-//W3C//DTD SVG 1.1//EN" "http://www.w3.org/Graphics/SVG/1.1/DTD/svg11.dtd"><svg class="icon" width="200px" height="199.80px" viewBox="0 0 1025 1024" version="1.1" xmlns="http://www.w3.org/2000/svg"><path d="M414.753109 853.333333c34.133333-23.893333 64.853333-47.786667 92.16-78.506666 13.653333-17.066667 54.613333-27.306667 75.093334-20.48 10.24 3.413333 6.826667 10.24 3.413333 17.066666-6.826667 13.653333-10.24 27.306667-17.066667 40.96-6.826667 13.653333-10.24 27.306667-17.066666 44.373334 54.613333-37.546667 102.4-71.68 122.88-136.533334 0-3.413333 3.413333-10.24 0-10.24-3.413333-3.413333-6.826667 0-10.24 3.413334-13.653333 10.24-30.72 20.48-47.786667 27.306666-3.413333 3.413333-10.24 6.826667-13.653333 3.413334-6.826667-3.413333-3.413333-10.24 0-17.066667 3.413333-30.72 10.24-61.44 10.24-92.16-3.413333-61.44-13.653333-119.466667-27.306667-180.906667-3.413333-13.653333 0-20.48 13.653333-20.48h54.613334c10.24 0 13.653333 6.826667 17.066666 17.066667 13.653333 37.546667 10.24 78.506667 13.653334 119.466667 6.826667 40.96 6.826667 85.333333 3.413333 129.706666 10.24 0 17.066667-6.826667 20.48-13.653333 58.026667-64.853333 85.333333-136.533333 71.68-221.866667-3.413333-17.066667 3.413333-20.48 17.066667-20.48h201.386666c13.653333 0 17.066667 3.413333 17.066667 17.066667 3.413333 34.133333 3.413333 71.68-3.413333 105.813333-10.24 58.026667-23.893333 112.64-51.2 163.84-27.306667 58.026667-64.853333 105.813333-112.64 150.186667-47.786667 44.373333-98.986667 75.093333-160.426667 98.986667-88.746667 34.133333-177.493333 40.96-269.653333 23.893333-71.68-13.653333-133.12-40.96-194.56-81.92-88.746667-58.026667-146.773333-136.533333-187.733334-232.106667-27.306667-68.266667-40.96-143.36-34.133333-218.453333 0-23.893333 6.826667-27.306667 27.306667-27.306667h208.213333c20.48 0 20.48 3.413333 20.48 20.48-6.826667 71.68 6.826667 139.946667 51.2 197.973334 3.413333 3.413333 6.826667 10.24 10.24 6.826666 6.826667 0 3.413333-6.826667 3.413333-13.653333 0-34.133333-3.413333-68.266667-10.24-102.4-3.413333-30.72-13.653333-61.44-17.066666-95.573333-3.413333-20.48 3.413333-23.893333 20.48-23.893334h40.96c17.066667 0 23.893333 6.826667 27.306666 20.48 3.413333 20.48 6.826667 37.546667 6.826667 58.026667 3.413333 54.613333 6.826667 105.813333 3.413333 160.426667 0 10.24-3.413333 20.48-3.413333 30.72-3.413333 17.066667-10.24 23.893333-27.306667 10.24-13.653333-10.24-27.306667-20.48-47.786666-37.546667-6.826667 64.853333-34.133333 119.466667-54.613334 174.08l3.413334 3.413333c6.826667-6.826667 13.653333-10.24 20.48-17.066666 34.133333-27.306667 71.68-51.2 88.746666-92.16 3.413333-10.24 13.653333-13.653333 23.893334-10.24 13.653333 3.413333 23.893333 10.24 37.546666 10.24 10.24 0 6.826667 10.24 3.413334 13.653333-6.826667 20.48-13.653333 40.96-23.893334 58.026667 6.826667 10.24 3.413333 23.893333 0 37.546666z" fill="#ffffff" /><path d="M810.699776 296.96h-153.6c-23.893333 0-23.893333 0-20.48 20.48v6.826667c6.826667 30.72 3.413333 34.133333-30.72 34.133333-44.373333 0-44.373333 0-54.613333-40.96-3.413333-6.826667 0-20.48-10.24-20.48-13.653333-3.413333-30.72-3.413333-44.373334 0-6.826667 3.413333-3.413333 10.24-3.413333 17.066667 6.826667 23.893333 13.653333 51.2 20.48 75.093333 13.653333 51.2 27.306667 102.4 27.306667 157.013333 0 23.893333 0 47.786667 3.413333 71.68 3.413333 40.96-3.413333 78.506667-13.653333 116.053334-3.413333 13.653333-13.653333 20.48-27.306667 20.48h-6.826667c-40.96 0-44.373333-6.826667-37.546666-44.373334 10.24-47.786667 6.826667-95.573333 0-143.36-6.826667-85.333333-34.133333-163.84-51.2-245.76 0-6.826667 0-20.48-10.24-20.48-13.653333-3.413333-30.72-3.413333-44.373334 0-6.826667 0-3.413333 6.826667 0 13.653334 3.413333 10.24 6.826667 20.48 6.826667 30.72 3.413333 10.24 0 17.066667-13.653333 17.066666H291.873109c-6.826667 0-13.653333-3.413333-13.653333-10.24 0-10.24-3.413333-17.066667-3.413333-23.893333-6.826667-34.133333-6.826667-34.133333-37.546667-34.133333H59.766443c-23.893333 3.413333-27.306667-3.413333-20.48-23.893334 6.826667-13.653333 13.653333-30.72 20.48-44.373333 6.826667-10.24 17.066667-13.653333 27.306666-13.653333h146.773334c17.066667 0 20.48-3.413333 23.893333-20.48 6.826667-75.093333 40.96-129.706667 112.64-157.013334h3.413333c6.826667-3.413333 13.653333-17.066667 20.48-10.24 6.826667 6.826667-3.413333 17.066667-6.826666 23.893334-20.48 47.786667-34.133333 95.573333-37.546667 150.186666 0 10.24 3.413333 13.653333 10.24 13.653334h3.413333c34.133333 0 34.133333 3.413333 37.546667-30.72 6.826667-71.68 47.786667-119.466667 112.64-150.186667 6.826667-3.413333 10.24-6.826667 17.066667 0s0 10.24-3.413334 17.066667c-20.48 47.786667-37.546667 95.573333-37.546666 146.773333 0 13.653333 3.413333 23.893333 20.48 17.066667 10.24-3.413333 20.48 6.826667 30.72-3.413334 6.826667-6.826667 3.413333-20.48 3.413333-30.72 3.413333-37.546667 13.653333-71.68 40.96-98.986666 20.48-20.48 44.373333-37.546667 71.68-51.2 3.413333-3.413333 10.24-3.413333 13.653333 0 3.413333 6.826667 0 10.24-3.413333 17.066666-20.48 44.373333-37.546667 92.16-37.546667 143.36 0 17.066667 3.413333 23.893333 20.48 20.48h259.413334c54.613333 0 54.613333 0 75.093333 51.2 10.24 23.893333 3.413333 30.72-20.48 30.72h-116.053333c-13.653333 6.826667-27.306667 6.826667-37.546667 6.826667z" fill="#ffffff" /></svg>